<svg width="168" height="50" viewBox="0 0 168 50" fill="none" xmlns="http://www.w3.org/2000/svg">
<path d="M32.4268 22.2573L43.5959 26.761V49.6397H32.4268V22.2573Z" fill="#1C1C1C"/>
<path d="M4.68372 8.20588L14.0514 1V49.6397H4.68372V8.20588Z" fill="#1C1C1C"/>
<path d="M27.7424 6.58456L14.4115 1V49.6397H24.8601V28.3824L27.5623 25.8603L27.7424 6.58456Z" fill="#1C1C1C"/>
<path d="M16.9342 7.125L24.8827 9.64706" stroke="#F8F8F8" stroke-width="1.44118" stroke-linecap="round"/>
<path d="M16.9342 13.25L24.8827 15.7721" stroke="#F8F8F8" stroke-width="1.44118" stroke-linecap="round"/>
<path d="M16.9342 19.375L24.8827 21.8971" stroke="#F8F8F8" stroke-width="1.44118" stroke-linecap="round"/>
<path d="M17.2947 25.5L25.2212 28.0221" stroke="#F8F8F8" stroke-width="1.44118" stroke-linecap="round"/>
<path d="M16.9342 31.625L24.8827 34.1471" stroke="#F8F8F8" stroke-width="1.44118" stroke-linecap="round"/>
<path d="M16.9342 37.75L24.8827 40.2721" stroke="#F8F8F8" stroke-width="1.44118" stroke-linecap="round"/>
<path d="M16.9342 43.875L24.8827 46.3971" stroke="#F8F8F8" stroke-width="1.44118" stroke-linecap="round"/>
<path d="M24.4998 28.3823L32.4262 22.2573V49.4595H24.4998V28.3823Z" fill="#1C1C1C"/>
<path d="M4.68372 49.6397V8.38603L14.2315 1M14.2315 1L27.7425 6.58456V26.0404M14.2315 1V49.2794H24.68V28.5625L27.7425 26.0404M27.7425 26.0404L32.4264 22.4375M32.4264 22.4375L43.2352 26.9412V49.2794H32.4264V22.4375Z" stroke="#F8F8F8" stroke-width="0.900735"/>
<path d="M6.48511 17.2132L12.0697 13.0698" stroke="#F8F8F8" stroke-width="0.900735" stroke-linecap="round"/>
<path d="M6.48511 23.158L12.0697 19.0146" stroke="#F8F8F8" stroke-width="0.900735" stroke-linecap="round"/>
<path d="M6.48511 29.1029L12.0697 24.9595" stroke="#F8F8F8" stroke-width="0.900735" stroke-linecap="round"/>
<path d="M6.48511 35.0477L12.0697 31.2646" stroke="#F8F8F8" stroke-width="0.900735" stroke-linecap="round"/>
<path d="M6.48511 40.9926L12.0697 37.3896" stroke="#F8F8F8" stroke-width="0.900735" stroke-linecap="round"/>
<path d="M6.48511 46.9374L12.0697 43.5146" stroke="#F8F8F8" stroke-width="0.900735" stroke-linecap="round"/>
<path d="M6.66528 11.2684L12.2498 7.125" stroke="#F8F8F8" stroke-width="0.900735" stroke-linecap="round"/>
<path d="M41.0732 46.0371L34.5879 42.7944" stroke="#F8F8F8" stroke-width="1.08088" stroke-linecap="round"/>
<path d="M41.0732 40.6323L34.5879 37.3896" stroke="#F8F8F8" stroke-width="1.08088" stroke-linecap="round"/>
<path d="M41.0732 35.228L34.5879 31.9854" stroke="#F8F8F8" stroke-width="1.08088" stroke-linecap="round"/>
<path d="M41.0732 29.8237L34.5879 26.5811" stroke="#F8F8F8" stroke-width="1.08088" stroke-linecap="round"/>
<path d="M26.3009 36.6689L30.9847 33.0659" stroke="#F8F8F8" stroke-width="0.720588" stroke-linecap="round"/>
<path d="M26.3009 41.7133L30.9847 38.1104" stroke="#F8F8F8" stroke-width="0.720588" stroke-linecap="round"/>
<path d="M26.3009 46.7572L30.9847 43.1543" stroke="#F8F8F8" stroke-width="0.720588" stroke-linecap="round"/>
<path d="M26.3009 31.6249L30.9847 28.022" stroke="#F8F8F8" stroke-width="0.720588" stroke-linecap="round"/>
<ellipse cx="25.0404" cy="49.2792" rx="25.0404" ry="0.720588" fill="#F8F8F8"/>
<path d="M63.468 42.536L63.624 42.188C64.336 42.196 64.916 42.304 65.364 42.512C65.82 42.72 66.152 43 66.36 43.352C66.576 43.704 66.684 44.1 66.684 44.54C66.684 45.02 66.568 45.444 66.336 45.812C66.112 46.18 65.78 46.472 65.34 46.688C64.9 46.896 64.352 47 63.696 47H57.696L58.404 42.38L57.696 38H63.48C64.312 38 64.952 38.196 65.4 38.588C65.856 38.972 66.084 39.504 66.084 40.184C66.084 40.544 65.996 40.896 65.82 41.24C65.652 41.576 65.376 41.864 64.992 42.104C64.616 42.336 64.108 42.48 63.468 42.536ZM59.292 46.556L58.68 45.728H63.516C64.012 45.728 64.396 45.616 64.668 45.392C64.948 45.16 65.088 44.832 65.088 44.408C65.088 43.96 64.924 43.612 64.596 43.364C64.276 43.116 63.8 42.992 63.168 42.992H59.268V41.768H63.012C63.436 41.768 63.788 41.652 64.068 41.42C64.348 41.18 64.488 40.84 64.488 40.4C64.488 40.072 64.372 39.804 64.14 39.596C63.908 39.38 63.572 39.272 63.132 39.272H58.68L59.292 38.444L59.928 42.38L59.292 46.556ZM73.8322 43.136C73.8322 43.672 73.9402 44.136 74.1562 44.528C74.3722 44.92 74.6802 45.224 75.0802 45.44C75.4882 45.648 75.9722 45.752 76.5322 45.752C77.1002 45.752 77.5842 45.648 77.9842 45.44C78.3842 45.224 78.6922 44.92 78.9082 44.528C79.1242 44.136 79.2322 43.672 79.2322 43.136V38H80.8162V43.196C80.8162 43.988 80.6362 44.684 80.2762 45.284C79.9162 45.876 79.4162 46.34 78.7762 46.676C78.1362 47.004 77.3882 47.168 76.5322 47.168C75.6842 47.168 74.9362 47.004 74.2882 46.676C73.6482 46.34 73.1482 45.876 72.7882 45.284C72.4282 44.684 72.2482 43.988 72.2482 43.196V38H73.8322V43.136ZM90.9838 38C92.0078 38 92.9038 38.188 93.6718 38.564C94.4478 38.94 95.0518 39.468 95.4838 40.148C95.9158 40.82 96.1318 41.604 96.1318 42.5C96.1318 43.396 95.9158 44.184 95.4838 44.864C95.0518 45.536 94.4478 46.06 93.6718 46.436C92.9038 46.812 92.0078 47 90.9838 47H86.9158V38H90.9838ZM88.4998 46.448L87.6238 45.608H91.0918C91.7798 45.608 92.3798 45.48 92.8918 45.224C93.4118 44.96 93.8118 44.596 94.0918 44.132C94.3798 43.66 94.5238 43.116 94.5238 42.5C94.5238 41.876 94.3798 41.332 94.0918 40.868C93.8118 40.404 93.4118 40.044 92.8918 39.788C92.3798 39.524 91.7798 39.392 91.0918 39.392H87.6238L88.4998 38.552V46.448ZM101.886 47.096C101.702 47.096 101.534 47.052 101.382 46.964C101.238 46.876 101.122 46.76 101.034 46.616C100.946 46.464 100.902 46.296 100.902 46.112C100.902 45.928 100.946 45.764 101.034 45.62C101.122 45.468 101.238 45.348 101.382 45.26C101.534 45.172 101.702 45.128 101.886 45.128C102.07 45.128 102.234 45.172 102.378 45.26C102.53 45.348 102.65 45.468 102.738 45.62C102.826 45.764 102.87 45.928 102.87 46.112C102.87 46.296 102.826 46.464 102.738 46.616C102.65 46.76 102.53 46.876 102.378 46.964C102.234 47.052 102.07 47.096 101.886 47.096Z" fill="#F8F8F8"/>
<path d="M57.456 25.072H59.064C59.112 25.432 59.26 25.748 59.508 26.02C59.764 26.292 60.1 26.504 60.516 26.656C60.932 26.8 61.412 26.872 61.956 26.872C62.764 26.872 63.404 26.748 63.876 26.5C64.348 26.244 64.584 25.9 64.584 25.468C64.584 25.116 64.448 24.852 64.176 24.676C63.904 24.5 63.412 24.368 62.7 24.28L60.756 24.028C59.668 23.884 58.876 23.616 58.38 23.224C57.892 22.824 57.648 22.26 57.648 21.532C57.648 20.98 57.812 20.504 58.14 20.104C58.476 19.696 58.948 19.384 59.556 19.168C60.164 18.944 60.876 18.832 61.692 18.832C62.5 18.832 63.216 18.952 63.84 19.192C64.464 19.432 64.96 19.768 65.328 20.2C65.704 20.624 65.908 21.124 65.94 21.7H64.332C64.292 21.38 64.156 21.104 63.924 20.872C63.7 20.64 63.396 20.46 63.012 20.332C62.628 20.196 62.176 20.128 61.656 20.128C60.92 20.128 60.332 20.248 59.892 20.488C59.452 20.728 59.232 21.056 59.232 21.472C59.232 21.792 59.36 22.04 59.616 22.216C59.88 22.384 60.336 22.512 60.984 22.6L62.952 22.876C63.76 22.988 64.396 23.14 64.86 23.332C65.332 23.516 65.668 23.768 65.868 24.088C66.068 24.4 66.168 24.804 66.168 25.3C66.168 25.876 65.992 26.38 65.64 26.812C65.288 27.244 64.792 27.58 64.152 27.82C63.52 28.052 62.78 28.168 61.932 28.168C61.068 28.168 60.304 28.04 59.64 27.784C58.984 27.52 58.464 27.156 58.08 26.692C57.696 26.228 57.488 25.688 57.456 25.072ZM74.3815 19.732H75.9655V28H74.3815V19.732ZM70.6615 19H79.6855V20.392H70.6615V19ZM84.7174 25.936V24.628H91.0054V25.936H84.7174ZM88.8934 19L93.2134 28H91.5214L87.5974 19.6H88.2094L84.2854 28H82.5934L86.9134 19H88.8934ZM106.85 27.04L106.202 27.112V19H107.738V28H105.722L99.4103 19.888L100.046 19.816V28H98.5103V19H100.574L106.85 27.04ZM118.017 19C119.041 19 119.937 19.188 120.705 19.564C121.481 19.94 122.085 20.468 122.517 21.148C122.949 21.82 123.165 22.604 123.165 23.5C123.165 24.396 122.949 25.184 122.517 25.864C122.085 26.536 121.481 27.06 120.705 27.436C119.937 27.812 119.041 28 118.017 28H113.949V19H118.017ZM115.533 27.448L114.657 26.608H118.125C118.813 26.608 119.413 26.48 119.925 26.224C120.445 25.96 120.845 25.596 121.125 25.132C121.413 24.66 121.557 24.116 121.557 23.5C121.557 22.876 121.413 22.332 121.125 21.868C120.845 21.404 120.445 21.044 119.925 20.788C119.413 20.524 118.813 20.392 118.125 20.392H114.657L115.533 19.552V27.448ZM129.591 25.936V24.628H135.879V25.936H129.591ZM133.767 19L138.087 28H136.395L132.471 19.6H133.083L129.159 28H127.467L131.787 19H133.767ZM144.488 23.056H148.148C148.676 23.056 149.092 22.936 149.396 22.696C149.708 22.456 149.864 22.128 149.864 21.712C149.864 21.288 149.708 20.96 149.396 20.728C149.092 20.488 148.676 20.368 148.148 20.368H144.26L144.968 19.48V28H143.384V19H148.292C148.924 19 149.476 19.116 149.948 19.348C150.428 19.572 150.8 19.888 151.064 20.296C151.336 20.696 151.472 21.168 151.472 21.712C151.472 22.24 151.336 22.708 151.064 23.116C150.8 23.516 150.428 23.832 149.948 24.064C149.476 24.288 148.924 24.4 148.292 24.4H144.488V23.056ZM146.264 23.788H148.124L151.7 28H149.804L146.264 23.788ZM161.378 19C162.402 19 163.298 19.188 164.066 19.564C164.842 19.94 165.446 20.468 165.878 21.148C166.31 21.82 166.526 22.604 166.526 23.5C166.526 24.396 166.31 25.184 165.878 25.864C165.446 26.536 164.842 27.06 164.066 27.436C163.298 27.812 162.402 28 161.378 28H157.31V19H161.378ZM158.894 27.448L158.018 26.608H161.486C162.174 26.608 162.774 26.48 163.286 26.224C163.806 25.96 164.206 25.596 164.486 25.132C164.774 24.66 164.918 24.116 164.918 23.5C164.918 22.876 164.774 22.332 164.486 21.868C164.206 21.404 163.806 21.044 163.286 20.788C162.774 20.524 162.174 20.392 161.486 20.392H158.018L158.894 19.552V27.448Z" fill="#F8F8F8"/>
</svg>
